<svg xmlns="http://www.w3.org/2000/svg" viewBox="0 0 671 146" fill="none">
  <path d="M 654 55 L 651 58 L 651 59 L 642 69 L 638 74 L 635 79 L 636 81 L 640 86 L 649 101 L 653 107 L 667 107 L 666 104 L 662 99 L 656 90 L 655 87 L 649 78 L 653 73 L 662 62 L 668 55 Z M 578 53 L 574 54 L 568 57 L 564 61 L 561 67 L 560 70 L 559 75 L 559 86 L 560 91 L 561 94 L 562 96 L 563 98 L 569 104 L 571 105 L 573 106 L 577 107 L 592 107 L 595 106 L 598 105 L 601 103 L 605 99 L 608 93 L 608 91 L 597 91 L 593 95 L 591 96 L 586 97 L 582 97 L 578 96 L 576 95 L 571 90 L 570 88 L 569 84 L 569 76 L 570 72 L 571 70 L 576 65 L 579 64 L 590 64 L 592 65 L 594 66 L 597 69 L 599 73 L 598 76 L 579 76 L 579 84 L 610 84 L 610 78 L 609 71 L 608 67 L 607 65 L 606 63 L 604 60 L 602 58 L 599 56 L 597 55 L 594 54 L 591 53 Z M 520 53 L 516 54 L 513 55 L 511 56 L 505 62 L 502 68 L 501 72 L 501 88 L 502 92 L 503 95 L 504 97 L 506 100 L 508 102 L 511 104 L 513 105 L 515 106 L 518 107 L 533 107 L 537 106 L 539 105 L 541 104 L 545 101 L 547 98 L 550 91 L 539 91 L 536 94 L 534 95 L 532 96 L 528 97 L 524 97 L 520 96 L 518 95 L 516 94 L 513 91 L 512 89 L 511 86 L 511 74 L 512 71 L 514 69 L 514 68 L 515 67 L 516 67 L 518 65 L 520 64 L 531 64 L 534 65 L 540 71 L 540 73 L 540 76 L 520 76 L 520 84 L 551 84 L 551 73 L 550 69 L 549 66 L 548 64 L 547 62 L 542 57 L 539 55 L 536 54 L 532 53 Z M 460 53 L 456 54 L 453 55 L 450 57 L 447 60 L 446 62 L 445 64 L 445 74 L 446 76 L 447 78 L 450 81 L 456 84 L 461 85 L 473 85 L 476 86 L 480 90 L 480 93 L 477 96 L 475 97 L 471 98 L 465 98 L 460 97 L 458 96 L 456 94 L 455 91 L 442 93 L 443 97 L 444 99 L 449 104 L 451 105 L 454 106 L 458 107 L 477 107 L 481 106 L 484 105 L 486 104 L 491 99 L 492 97 L 493 93 L 493 89 L 492 86 L 490 82 L 488 80 L 482 77 L 479 76 L 472 75 L 462 75 L 460 74 L 457 71 L 457 67 L 460 64 L 462 63 L 474 63 L 476 64 L 478 66 L 479 69 L 490 69 L 490 64 L 489 62 L 488 60 L 485 57 L 482 55 L 479 54 L 475 53 Z M 384 53 L 384 122 L 386 122 L 387 123 L 395 122 L 395 76 L 396 72 L 398 68 L 400 66 L 402 65 L 404 64 L 407 63 L 413 63 L 416 64 L 420 66 L 422 68 L 423 70 L 424 72 L 425 76 L 425 82 L 424 87 L 423 89 L 419 93 L 417 94 L 415 95 L 403 96 L 404 106 L 411 106 L 418 105 L 421 104 L 423 103 L 425 102 L 430 97 L 433 91 L 434 87 L 434 71 L 433 68 L 432 65 L 431 63 L 429 60 L 426 57 L 420 54 L 416 53 L 405 53 L 402 54 L 400 55 L 398 57 L 395 56 L 395 53 Z M 344 53 L 341 54 L 338 55 L 336 56 L 333 58 L 331 60 L 329 63 L 328 65 L 327 67 L 326 71 L 325 78 L 325 82 L 326 90 L 327 93 L 330 99 L 334 103 L 337 105 L 340 106 L 343 107 L 358 107 L 361 106 L 364 105 L 366 104 L 372 98 L 373 96 L 374 94 L 374 91 L 363 91 L 359 95 L 357 96 L 353 97 L 349 97 L 344 96 L 342 95 L 337 90 L 336 87 L 335 83 L 335 78 L 336 73 L 337 71 L 338 69 L 341 66 L 343 65 L 345 64 L 356 64 L 359 65 L 364 70 L 365 72 L 364 76 L 345 76 L 345 84 L 376 84 L 376 75 L 375 70 L 374 67 L 371 61 L 367 57 L 361 54 L 357 53 Z M 286 53 L 282 54 L 276 57 L 271 62 L 270 64 L 269 66 L 268 69 L 267 74 L 267 87 L 268 91 L 269 94 L 270 96 L 271 98 L 277 104 L 279 105 L 281 106 L 285 107 L 300 107 L 303 106 L 309 103 L 312 100 L 314 97 L 315 95 L 315 93 L 316 91 L 305 91 L 301 95 L 299 96 L 294 97 L 290 97 L 286 96 L 282 94 L 280 92 L 278 89 L 277 85 L 277 75 L 278 72 L 279 70 L 284 65 L 287 64 L 298 64 L 300 65 L 302 66 L 305 69 L 307 73 L 306 76 L 287 76 L 287 84 L 317 84 L 317 72 L 316 68 L 315 65 L 314 63 L 307 56 L 305 55 L 302 54 L 298 53 Z M 248 38 L 248 81 L 247 88 L 246 90 L 245 92 L 242 95 L 240 96 L 237 97 L 229 97 L 226 96 L 224 95 L 220 91 L 219 89 L 218 85 L 218 77 L 219 73 L 220 71 L 224 67 L 226 66 L 229 65 L 239 65 L 239 55 L 226 55 L 223 56 L 220 57 L 218 58 L 213 63 L 210 69 L 209 72 L 209 90 L 210 93 L 211 96 L 213 99 L 218 104 L 220 105 L 222 106 L 225 107 L 239 107 L 241 106 L 245 103 L 248 104 L 248 107 L 259 107 L 259 38 Z M 618 35 L 618 107 L 629 107 L 629 35 Z M 134 3 L 133 5 L 131 9 L 130 13 L 130 24 L 131 29 L 133 34 L 135 37 L 137 40 L 140 43 L 145 50 L 144 55 L 141 57 L 138 55 L 135 54 L 132 52 L 112 32 L 106 27 L 102 25 L 98 21 L 98 19 L 98 16 L 98 14 L 104 9 L 104 7 L 102 6 L 92 6 L 87 7 L 84 8 L 78 11 L 75 12 L 67 12 L 51 11 L 44 12 L 40 13 L 37 14 L 32 16 L 27 19 L 24 21 L 14 31 L 12 34 L 10 37 L 6 45 L 5 48 L 4 51 L 3 55 L 2 61 L 0 61 L 0 74 L 3 75 L 3 81 L 4 86 L 7 95 L 9 100 L 10 102 L 13 107 L 15 110 L 17 113 L 31 127 L 35 130 L 38 132 L 41 134 L 49 138 L 58 141 L 62 142 L 68 143 L 87 143 L 94 142 L 98 141 L 102 140 L 107 138 L 109 137 L 111 136 L 114 134 L 120 129 L 124 129 L 130 131 L 148 131 L 151 130 L 154 127 L 154 124 L 152 122 L 148 121 L 140 117 L 137 116 L 137 114 L 141 109 L 146 104 L 152 95 L 156 87 L 160 75 L 161 71 L 162 67 L 163 61 L 164 51 L 166 50 L 170 50 L 173 49 L 179 46 L 182 44 L 187 39 L 189 36 L 190 34 L 191 32 L 192 29 L 193 26 L 194 21 L 194 16 L 192 14 L 190 14 L 184 20 L 182 21 L 180 22 L 171 22 L 167 23 L 165 24 L 161 27 L 159 27 L 157 25 L 156 22 L 152 18 L 145 15 L 143 13 L 142 13 L 141 12 L 140 10 L 139 8 L 139 6 L 138 4 L 136 2 Z M 104 68 L 106 68 L 108 71 L 106 73 L 103 72 Z M 105 58 L 109 58 L 112 59 L 114 60 L 116 61 L 123 68 L 125 71 L 127 74 L 128 77 L 130 81 L 127 84 L 124 85 L 121 85 L 118 84 L 112 78 L 112 68 L 109 65 L 105 65 L 103 64 L 102 61 Z M 18 53 L 34 53 L 38 54 L 42 55 L 45 56 L 48 57 L 52 59 L 58 62 L 67 68 L 81 82 L 84 86 L 87 90 L 93 100 L 98 107 L 103 113 L 112 121 L 115 127 L 105 127 L 102 126 L 99 125 L 97 124 L 94 122 L 86 115 L 77 109 L 69 105 L 65 105 L 64 107 L 64 110 L 68 117 L 68 120 L 66 122 L 64 123 L 59 123 L 55 122 L 52 121 L 49 119 L 43 115 L 30 102 L 28 99 L 26 96 L 23 91 L 20 84 L 18 79 L 17 75 L 16 71 L 15 66 L 16 54 Z" fill="#FFFFFF" fill-rule="evenodd"/>
</svg>