<svg xmlns="http://www.w3.org/2000/svg" viewBox="0 0 496 169" fill="none">
  <path d="M 462 103 L 459 104 L 456 105 L 454 106 L 451 108 L 449 110 L 447 113 L 446 115 L 446 120 L 447 122 L 449 123 L 453 123 L 462 114 L 464 113 L 474 113 L 478 115 L 480 117 L 481 119 L 481 123 L 482 124 L 481 128 L 477 129 L 463 129 L 457 130 L 454 131 L 452 132 L 450 133 L 447 135 L 444 139 L 443 141 L 443 153 L 444 155 L 445 157 L 450 162 L 452 163 L 454 164 L 457 165 L 467 165 L 471 164 L 473 163 L 475 162 L 482 158 L 482 161 L 483 163 L 485 165 L 490 165 L 492 164 L 493 163 L 494 161 L 494 120 L 493 116 L 492 114 L 491 112 L 486 107 L 480 104 L 477 103 Z M 471 137 L 482 138 L 482 140 L 481 146 L 480 148 L 474 154 L 472 155 L 461 155 L 459 154 L 455 150 L 455 144 L 456 142 L 458 140 L 460 139 L 462 138 Z M 353 103 L 350 106 L 350 161 L 351 163 L 353 165 L 359 165 L 361 163 L 362 161 L 362 124 L 363 121 L 364 119 L 368 115 L 370 114 L 372 113 L 377 113 L 380 114 L 382 115 L 385 118 L 386 120 L 386 159 L 387 162 L 390 165 L 395 165 L 398 162 L 399 132 L 398 127 L 399 121 L 400 119 L 404 115 L 406 114 L 409 113 L 413 113 L 416 114 L 418 115 L 421 118 L 422 120 L 423 123 L 423 162 L 426 165 L 431 165 L 433 164 L 434 163 L 435 161 L 435 119 L 434 115 L 433 113 L 432 111 L 427 106 L 424 104 L 421 103 L 410 103 L 407 104 L 405 105 L 403 106 L 398 112 L 396 113 L 394 111 L 389 105 L 387 104 L 384 103 L 374 103 L 371 104 L 368 106 L 364 111 L 361 111 L 361 106 L 358 103 Z M 309 103 L 305 104 L 302 105 L 299 107 L 296 109 L 293 113 L 292 115 L 292 120 L 295 123 L 299 123 L 308 114 L 310 113 L 320 113 L 324 115 L 326 117 L 327 119 L 328 122 L 327 128 L 323 129 L 309 129 L 303 130 L 300 131 L 298 132 L 296 133 L 291 138 L 290 140 L 289 142 L 289 152 L 290 155 L 291 157 L 296 162 L 298 163 L 300 164 L 303 165 L 313 165 L 317 164 L 319 163 L 321 162 L 328 158 L 328 161 L 329 163 L 331 165 L 337 165 L 339 163 L 340 161 L 340 119 L 339 116 L 338 114 L 337 112 L 331 106 L 329 105 L 326 104 L 322 103 Z M 317 137 L 328 138 L 328 143 L 327 146 L 325 150 L 323 152 L 320 154 L 318 155 L 307 155 L 305 154 L 302 151 L 301 149 L 301 144 L 302 142 L 304 140 L 306 139 L 308 138 Z M 59 86 L 59 89 L 61 95 L 63 97 L 67 96 L 67 91 L 70 87 L 68 85 L 66 85 L 65 86 L 63 86 L 62 85 Z M 273 80 L 271 81 L 269 83 L 268 85 L 268 161 L 269 163 L 270 164 L 272 165 L 277 165 L 280 162 L 280 84 L 279 82 L 278 81 L 276 80 Z M 249 80 L 246 82 L 245 84 L 245 162 L 248 165 L 253 165 L 255 164 L 256 163 L 257 161 L 257 84 L 254 81 L 252 80 Z M 190 80 L 185 81 L 182 82 L 174 86 L 166 94 L 164 97 L 161 103 L 160 106 L 159 110 L 158 115 L 158 131 L 159 136 L 160 140 L 162 145 L 165 150 L 167 153 L 171 157 L 175 160 L 181 163 L 184 164 L 188 165 L 193 165 L 194 166 L 198 166 L 206 165 L 210 164 L 213 163 L 215 162 L 217 161 L 220 159 L 228 151 L 230 148 L 231 146 L 232 144 L 233 141 L 234 138 L 235 134 L 236 126 L 236 119 L 235 112 L 234 108 L 233 104 L 229 96 L 227 93 L 222 88 L 218 85 L 216 84 L 214 83 L 211 82 L 208 81 L 204 80 Z M 193 91 L 202 91 L 205 92 L 211 95 L 217 101 L 221 109 L 222 113 L 222 133 L 221 136 L 220 139 L 219 141 L 218 143 L 210 151 L 208 152 L 206 153 L 203 154 L 190 154 L 187 153 L 185 152 L 182 150 L 177 145 L 175 142 L 174 140 L 173 138 L 172 135 L 171 129 L 171 116 L 172 111 L 173 108 L 176 102 L 184 94 L 186 93 L 189 92 Z M 93 72 L 90 75 L 90 79 L 91 81 L 94 84 L 99 84 L 102 81 L 102 76 L 101 74 L 99 72 Z M 30 72 L 27 75 L 27 81 L 28 83 L 30 84 L 35 84 L 38 81 L 39 78 L 39 76 L 38 74 L 36 72 Z M 62 70 L 61 71 L 57 71 L 54 72 L 48 75 L 42 81 L 41 83 L 40 85 L 39 88 L 39 95 L 42 101 L 47 106 L 49 107 L 51 108 L 54 109 L 57 110 L 71 110 L 76 109 L 82 106 L 87 101 L 88 99 L 89 97 L 90 93 L 90 90 L 89 86 L 88 83 L 86 80 L 82 76 L 79 74 L 77 73 L 75 72 L 72 71 L 65 70 Z M 58 77 L 70 77 L 73 78 L 75 79 L 77 80 L 82 85 L 83 87 L 83 93 L 83 95 L 82 97 L 78 101 L 76 102 L 74 103 L 69 104 L 59 104 L 55 103 L 53 102 L 51 101 L 46 96 L 45 93 L 45 89 L 46 86 L 52 80 Z M 27 2 L 25 3 L 21 7 L 20 9 L 19 11 L 18 14 L 17 17 L 16 21 L 17 42 L 17 44 L 9 52 L 7 55 L 6 57 L 5 59 L 4 62 L 3 65 L 2 70 L 0 70 L 0 77 L 3 78 L 3 82 L 4 85 L 5 88 L 7 90 L 8 92 L 8 94 L 6 97 L 5 100 L 4 103 L 3 109 L 3 119 L 4 125 L 5 128 L 6 131 L 7 133 L 9 135 L 9 137 L 8 140 L 6 144 L 5 148 L 5 164 L 6 166 L 15 166 L 15 164 L 14 149 L 15 145 L 18 140 L 19 137 L 19 133 L 16 130 L 13 124 L 12 118 L 12 110 L 13 105 L 14 102 L 15 99 L 19 92 L 18 90 L 14 85 L 13 83 L 12 81 L 11 76 L 11 71 L 12 66 L 14 61 L 16 58 L 23 51 L 26 49 L 29 48 L 32 48 L 33 47 L 35 47 L 40 48 L 43 45 L 44 42 L 50 36 L 53 34 L 55 33 L 58 32 L 62 31 L 67 31 L 71 32 L 77 35 L 80 37 L 84 41 L 85 44 L 87 47 L 89 48 L 100 48 L 106 51 L 112 57 L 114 60 L 115 62 L 116 64 L 117 67 L 117 80 L 116 83 L 115 85 L 112 88 L 110 91 L 110 94 L 111 96 L 113 98 L 114 100 L 115 102 L 116 106 L 116 122 L 115 126 L 114 128 L 113 130 L 110 133 L 109 136 L 110 138 L 113 143 L 114 146 L 115 151 L 114 163 L 114 166 L 123 165 L 124 163 L 124 150 L 123 145 L 122 141 L 120 138 L 120 135 L 123 130 L 124 127 L 125 124 L 125 104 L 124 100 L 121 95 L 121 92 L 125 85 L 126 81 L 126 66 L 125 62 L 123 58 L 120 52 L 112 44 L 112 40 L 113 23 L 112 18 L 111 14 L 107 6 L 104 3 L 102 2 L 94 2 L 91 4 L 89 6 L 87 9 L 86 11 L 84 16 L 83 20 L 81 27 L 78 25 L 73 23 L 68 22 L 61 22 L 56 23 L 53 24 L 46 26 L 45 21 L 45 17 L 44 14 L 41 8 L 36 3 L 34 2 Z M 100 12 L 101 14 L 102 16 L 103 19 L 104 24 L 103 39 L 98 39 L 93 38 L 91 36 L 91 29 L 92 22 L 93 18 L 94 16 L 95 14 Z M 31 11 L 34 14 L 35 16 L 36 19 L 37 23 L 38 32 L 38 35 L 37 37 L 32 39 L 25 38 L 25 22 L 26 18 L 27 15 L 28 13 Z" fill="#FFFFFF" fill-rule="evenodd"/>
</svg>